<svg xmlns="http://www.w3.org/2000/svg" xmlns:xlink="http://www.w3.org/1999/xlink" id="Layer_2" data-name="Layer 2" viewBox="0 0 613.98 507.42"><defs><style>      .cls-1 {        fill: #fefefe;      }      .cls-1, .cls-2, .cls-3 {        stroke-width: 0px;      }      .cls-2 {        fill: url(#radial-gradient);        fill-rule: evenodd;      }      .cls-3 {        fill: #fff;      }    </style><radialGradient id="radial-gradient" cx="-16.23" cy="-56.54" fx="-16.23" fy="-56.54" r="1113.25" gradientUnits="userSpaceOnUse"><stop offset="0" stop-color="#00a213"></stop><stop offset="1" stop-color="#00320b"></stop></radialGradient></defs><g id="_48" data-name="48"><g><path class="cls-2" d="m70.85,22.17l28.02,33.8c-19.57,22.24-10.69,16.25-27.37,20.3-14.73,3.47-4.98-1.08-10.91,7.15-16.61,23.04-18.2,15.96-49.11,11.48l-8.45,43.55c18.56-2.67,15.96-1.73,23.98,12.85l29.76,46.58c2.31,3.39,1.81,2.17,4.04,5.92.29.43.65,1.08.94,1.59l2.6,5.13c2.24,4.04,4.55,7.15,8.09,12.42,10.47,15.6,2.1,24.05,15.53,35.68,3.25,2.89,7.94,3.97,13.07,7.37,17.69,11.48,18.34,21.96,23.83,34.38,17.04,38.49-.29,8.45,8.02,45.28,11.34,50.77,30.62,30.33,50.92,61.96,15.17,23.61,5.78,31.05,34.95,59l19.5,31.13c3.4,5.99-.22,1.73,3.9,6.07,19.64-20.73,2.02-9.03,12.71-31.92,16.03-2.02,3.97,3.83,19.79,3.76l28.67-2.53c8.88,0,22.46,5.2,35.82,5.56,30.91.79,6.36,3.11,27.88,8.95,10.98-1.08,8.09-10.9,24.48-30.19,27.3-32.07,89.91-22.61,126.75-36.04,94.46-34.38,72.29-13.29,90.13-70.71,10.33-33.22-7.8-38.49-7.94-38.2l-6.79-1.3c-58.64-8.38-67.38,3.32-93.96-41.53-7.29-12.35-.36-9.24-11.99-10.83l5.63-9.97c-34.38,3.76-22.68-25.78-43.48-47.66,8.52-5.85-.08,5.49,6.93-5.13-4.33-9.24-2.53-1.95-4.98-10.25-2.74-9.46,7.51.87-4.48-8.81-26.94-21.81-13.36-16.18-24.85-23.9-10.9-7.37.07,2.31-11.12-16.39-.29-.5-.72-1.08-1.01-1.59-2.31-4.33-3.25-8.81-3.83-13.79l-24.99.58-5.06-14.15c-60.37-16.9-50.05,19.72-120.53-40.16-8.59-7.37-20.94-16.61-28.89-24.63C211.6,27.3,159.9-.94,135.63,2.74c-4.98.79-13.36,5.06-20.94,7.15-13.36,3.68-29.9,10.04-43.84,12.28h0Z"></path><path class="cls-3" d="m75.4,23.83l26.65,32.21-1.37,1.59c-4.33,4.91-7.37,8.59-9.6,11.19-2.74,3.32-4.12,5.06-5.71,6.21-1.81,1.37-3.32,1.59-6.36,2.17-1.73.29-4.04.72-6.93,1.37-3.61.87-5.71,1.3-7,1.52-.29,1.08-.94,2.6-2.46,4.69-14.16,19.64-18.13,18.85-35.97,15.24-3.61-.72-7.94-1.59-13.22-2.38l-7.37,37.91c14.52-1.95,15.02-.87,20.37,9.46.79,1.45,1.66,3.11,2.74,5.13l29.61,46.44c.94,1.37,1.37,1.88,1.73,2.38h0c.58.72,1.01,1.23,2.38,3.54.29.5.43.79.65,1.08,1.01,1.88,1.95,3.83,2.96,5.78,1.66,3.03,3.39,5.56,5.78,9.03l2.17,3.25c5.13,7.51,5.99,13.36,6.86,18.78.87,5.63,1.59,10.62,8.23,16.4,1.52,1.3,3.54,2.31,5.85,3.39,2.17,1.01,4.48,2.09,6.93,3.68,14.95,9.68,18.27,18.63,21.96,28.45.87,2.24,1.73,4.55,2.82,7,9.61,21.74,8.67,23.11,6.86,25.93-.94,1.52-2.38,3.61,1.3,19.86,6.5,29.03,15.6,33.8,25.93,39.29,7.73,4.04,16.11,8.45,24.7,21.81,5.85,9.17,8.09,15.96,10.26,22.32,3.39,10.11,6.5,19.28,24.27,36.33l.43.43,19.5,31.27c1.15,1.95,1.59,3.03,1.8,3.68,8.02-8.67,7.73-9.75,7.15-11.7-.79-2.82-1.88-6.57,3.32-17.77l.58-1.15,1.3-.22c9.6-1.23,10.83.29,12.35,2.17.58.73,1.3,1.59,7.73,1.59l28.74-2.53c4.41,0,9.68,1.15,15.46,2.46,6.43,1.37,13.58,2.96,20.36,3.1,19.07.51,19.43,2.1,20.01,5.06.14.72.29,1.73,8.02,3.9,4.55-.65,6.14-3.61,8.95-8.96,2.6-4.98,6.14-11.7,13.51-20.37,18.06-21.23,50.41-24.77,81.17-28.24,17.05-1.88,33.58-3.75,46.58-8.45,20.15-7.37,34.88-12.13,45.86-15.67,15.38-4.98,23.33-7.58,27.88-11.12,4.55-3.61,5.92-8.88,8.67-19.79,1.45-5.78,3.32-13.07,6.28-22.61,5.34-17.12,2.82-26.22-.58-30.84-1.15-1.52-2.38-2.6-3.39-3.25-.72-.51-1.3-.72-1.66-.87l-7.15-1.37c-13.14-1.88-23.76-2.74-32.64-3.47-31.63-2.6-41.82-3.39-63.05-39.21-2.67-4.55-3.54-7.15-4.04-8.67-.14-.43.07-.43-.07-.5-.22-.15-.36.07-1.45,0-1.15-.15-2.67-.29-4.62-.58l-3.54-.51,5.13-9.1c-19.21.65-22.89-10.11-27.51-23.69-2.75-8.02-5.85-17.12-13.36-25.06l-2.02-2.02,2.38-1.66c2.31-1.59,4.04-2.53,5.27-2.89l.29-.36c-1.44-2.89-1.81-3.32-2.09-3.54-.79-.79-1.01-.94-2.46-5.92-.72-2.38-.87-4.04-.65-5.2-.87-.58-1.81-1.37-3.03-2.38-16.25-13.14-18.2-16.76-19.43-19.07-.65-1.15-1.08-1.88-5.27-4.69-2.1-1.37-3.39-2.24-4.19-2.67-1.01-.65-1.44-.87-1.8-1.52-.51-.65-.51-1.08-.51-1.73s-.07-2.46-5.34-11.27l-.36-.5c-.22-.36-.51-.79-.72-1.23-1.23-2.31-2.1-4.7-2.75-7.15-.43-1.73-.79-3.47-1.08-5.27l-24.55.65-5.2-14.73c-20.8-5.63-32.93-4.69-43.12-3.9-19.07,1.44-31.56,2.38-77.06-36.33h0c-2.6-2.24-5.78-4.77-9.1-7.44-7-5.63-14.44-11.7-20-17.33-8.38-8.52-27.95-20.94-47.74-29.68-15.6-6.86-31.34-11.41-41.6-9.82-2.46.36-6.07,1.73-9.97,3.25-3.4,1.37-7.15,2.82-10.69,3.76-4.26,1.23-9.1,2.74-14.16,4.33-8.52,2.74-17.48,5.56-25.78,7.29h0Zm20.29,32.14l-29.47-35.46,4.26-.72c9.03-1.52,19.43-4.77,29.25-7.87,4.84-1.59,9.61-3.11,14.3-4.41,3.32-.94,6.93-2.31,10.26-3.61,4.19-1.59,8.02-3.11,10.98-3.54,11.27-1.73,27.95,3.03,44.27,10.26,20.37,8.88,40.44,21.74,49.25,30.69,5.27,5.27,12.71,11.34,19.57,16.9h0c3.18,2.6,6.28,5.06,9.17,7.51h0c43.98,37.41,55.75,36.54,73.59,35.17,10.76-.79,23.62-1.81,46.01,4.48l1.23.36,4.91,13.72,25.42-.65.29,2.24c.29,2.38.65,4.69,1.16,6.79.58,2.17,1.3,4.19,2.38,6.14.07.22.29.51.5.8l.43.72c4.69,7.87,5.71,11.2,5.92,12.78h.07c.72.43,2.02,1.23,4.41,2.82,5.2,3.54,5.85,4.62,6.79,6.43,1.08,2.02,2.74,5.06,18.2,17.62,3.54,2.82,5.05,3.9,5.63,4.26.43.36.72.51,1.01,1.08h0c2.16,4.33.87,4.55-1.95,3.76h-.22c.36.22.72.51.87.87,1.08,3.68,1.08,3.76,1.16,3.76.5.51,1.37,1.37,3.68,6.21l.58,1.23-.79,1.16c-1.81,2.82-2.53,3.97-2.82,4.41l-.22.36c-.29.43-.58.79-.94,1.01,6,7.66,8.74,15.82,11.27,23.18,4.26,12.42,7.58,22.17,27.01,20.01l4.69-.51-6.14,10.91.87.07c2.24.22,3.18.36,4.19,1.3.79.65,1.01,1.37,1.44,2.6.44,1.3,1.23,3.54,3.61,7.66,19.93,33.65,29.54,34.45,59.22,36.83,8.95.72,19.64,1.59,33,3.54l6.64,1.3c.22,0,.43,0,.58.07.65.15,2.02.65,3.54,1.59,1.44.94,3.11,2.38,4.62,4.48,4.11,5.56,7.22,16.1,1.3,35.17-2.89,9.31-4.69,16.61-6.14,22.39-3.1,11.99-4.55,17.77-10.47,22.39-5.13,4.05-13.43,6.79-29.32,11.92-11.05,3.61-25.78,8.38-45.71,15.6-13.58,4.98-30.4,6.86-47.74,8.74-29.83,3.32-61.17,6.86-78,26.58-6.93,8.16-10.33,14.66-12.86,19.43-3.68,7.08-5.7,10.83-13.22,11.63l-.87-.07c-11.12-3.03-11.63-5.78-12.06-7.8-.07-.5-.14-.72-15.24-1.08-7.37-.22-14.66-1.81-21.3-3.25-5.56-1.23-10.54-2.31-14.45-2.31l-28.45,2.53h-.22c-8.81,0-10.33-1.88-11.63-3.47-.51-.65-.94-1.15-6.57-.5-3.76,8.52-3.03,11.12-2.46,13.07,1.08,3.83,1.66,5.92-10.04,18.34l-1.81,1.88-1.8-1.88c-.8-.94-1.23-1.37-1.52-1.66-.51-.51-.72-.72-.87-1.01-.36-.51-.36-.79-.43-1.16,0-.14-.07-.36-1.45-2.75l-19.28-30.84c-18.42-17.69-21.67-27.37-25.28-37.99-2.02-6.14-4.19-12.57-9.75-21.23-7.87-12.28-15.67-16.39-22.89-20.15-11.41-6.07-21.38-11.34-28.38-42.54-4.12-18.27-2.02-21.38-.65-23.54.87-1.37,1.3-2.02-7.22-21.38-1.08-2.46-2.02-4.91-2.89-7.3-3.39-8.95-6.5-17.19-20.01-26-2.24-1.45-4.4-2.46-6.43-3.39-2.6-1.23-4.91-2.38-6.93-4.12-8.02-6.93-8.88-12.78-9.89-19.35-.79-4.84-1.59-10.18-6.07-16.83l-2.17-3.18c-2.38-3.54-4.19-6.14-6.07-9.46l-2.6-5.13-.87-1.52c-1.16-2.02-1.52-2.46-2.02-3.11-.43-.51-.94-1.16-1.95-2.67-9.46-15.6-19.93-31.34-29.9-46.8-1.01-1.95-1.95-3.68-2.74-5.2-4.19-8.09-4.33-8.45-18.7-6.43l-3.4.51,9.53-49.18,2.31.29c6.28.94,11.48,1.95,15.82,2.82,15.24,3.11,18.63,3.75,30.98-13.29,1.81-2.53,1.73-3.11,1.66-3.32-.14-1.16-.29-1.73,1.16-2.67.58-.43,1.01-.5,1.95-.58,1.08-.22,3.25-.51,7.51-1.52,3.39-.79,5.56-1.23,7.22-1.52h0c2.31-.43,3.47-.58,4.33-1.3,1.08-.72,2.38-2.31,4.84-5.34,1.88-2.24,4.48-5.34,8.38-9.75h0Z"></path><path class="cls-1" d="m364.58,343.16h.06c7,.34,13.54.06,20.54.4,1.14.97.57,3.13-.17,3.53h-.28c-2.28-.06-3.58-.11-5.86-.17,0-.11-.06-.23-.06-.34-.57-1.59-4.44-1.48-5.41-.23v.06c-.06.06-.06.11-.06.11-.06.06-.06.11-.06.11v.17c-.06.06-.06.17-.06.17-3.07.4-5.81-.06-8.94-.17-.85-1.14-.74-3.19.28-3.64h0Zm-3.25-17.36l-.06.06c-4.55,1.14-4.38,5.86-1.48,7.97-48.04,0-121.69-.85-137.51-.85-8.82,0-36.77-1.02-37.34-1.02,5.98,8.76,14.68,10.53,26.07,10.7,21.34,0,120.15-.23,148.27-.23-1.99,3.53.17,9.22,1.76,10.3,0,0,.06.06.11.06.06.06.11.06.17.06h.06c1.88.46,2.67-.91,3.36-1.88,3.02.29,19.98.51,21.57,0v-.06c1.08,1.54,2.11,3.02,4.1,2.79,3.53-.74,6.26-1.14,6.37-8.25,0,0-.34-12.12-8.31-11.38-1.88.28-7.17.8-7.17.8-6.15-.68-10.64-.8-17.47-1.03.63-.8,1.71-4.1.34-5.29-.34-.28-.85-.46-1.59-.34h-.11v-.06h-.06c-.06-.06-.11-.11-.11-.17h-.06c-.34-.51-.57-1.76-.74-2.11h-.06l-.06-.06h-.06Z"></path><path class="cls-1" d="m125.49,175.47c2.33-2.68,3.19,8.82,4.55,13.49,1.65,6.37,3.93,3.93,4.44.46.34-3.07,1.25-6.49,1.25-6.49,1.02-6.77,4.72-10.82,6.2-10.7,1.82-.34,2.67.17,3.41,2.11.97,1.93,1.25,9.62.17,14.51-.23,3.76,4.38,8.03,4.16.46-.74-5.64-1.2-10.53-2.79-16.05-.34-3.13-.34-6.6-.23-9.96.74-1.76,2.79-2.67,4.16-.8,2.28,1.88,2.73,9.22,3.13,12.69,0,2.79.28,8.94,1.59,13.09.97,1.99,2.22,2.39,2.85.68.74,0-.85-1.94-1.88-5.01-1.42-3.36-2.39-10.82-.4-14.29.74-1.19,2.28-1.19,3.41,0,1.14,1.99,2.56,2.96,3.02,5.92.63,2.16,1.59,3.02.4,10.7,0,.74,4.55,4.16,4.55,4.16,1.37,1.48,3.02,1.88,4.67.91.4-2.39-.51-5.06-1.2-6.72-3.13-4.1-5.12-9.16-4.67-13.43,1.08-3.7,4.04-4.1,6.09-2.33,2.45,1.37,3.93,4.38,4.89,7.63-.34,1.42-1.93,1.59-2.9,0-.28.74,1.08,2.73.85,3.47,1.76,4.15,2.22,8.31,2.56,12.46-.11,4.38-3.53,7.11-9.22,8.71-3.7.8-4.78-1.25-7.23-2.96-1.48-.85-3.64-.74-3.7.97-1.19,1.71.85,9.22.57,18.16-.28,15.14-5.86,13.55-5.86,13.55-.4-8.08-.74-16.11-1.14-24.19-.97-2.33-2.56-2.39-4.95-2.22-2.33-.91-5.29-2.28-5.24-6.83v-13.94c-.11-1.88-1.25-1.88-1.88-.4-3.36,3.02,1.71,19.46-7.46,18.55-7.63-1.59-6.83-17.36-6.2-26.35h0Zm25.04,36.77c-1.31-1.94-.06-3.7-5.01-3.87-7.57.17-18.67,9.96-18.95,15.42,7.97-3.87,15.88-7.57,23.96-11.55h0Zm19.24-.4c-.51.06-1.02.28-1.31.57-.11.06-.11.11-.17.23h-.06c-.34.63-1.2,1.48-.91,2.33.57.8,1.02.97,1.99,1.02.8,0,1.94.17,2.22-.29h.06v-.06c.46-.51.8-1.48.46-2.45-.51-1.19-1.42-1.48-2.28-1.37h0Zm11.38-50.31c.17-.06.34,0,.51.06.06,0,.17.06.23.06.06.06.11.06.11.11.06,0,.11.06.11.06.11.06.23.17.29.28h.06c1.82.91,5.07,10.7,6.6,15.48-1.42,1.82-2.85.63-4.38.68,1.2,9.16,2.39,17.93,3.59,27.09,3.76-2.16,5.64-1.59,5.18,3.07.34,1.99,3.36,1.76,5.01.4,2.45-6.89,6.43-6.32,7.46-1.88.06,1.08,1.31,1.31,2.05.91.11-.06.28-.23.4-.34,0-.11.06-.17.06-.29.17-1.14.4-2.33.57-3.47,0-.23.11-.4.28-.57.68-.74,2.33-1.2,4.38-1.82-.11,4.15-.68,8.2-1.37,12.12-1.14,3.98-6.72,5.07-9.85,2.79-.91-.97-2.28-.45-2.79.28-1.25,1.48-6.94,5.29-11.04.91,0,0-.06.06-.11.06h0l-.06.06h-.06c-1.08,1.02,2.22,9.28-1.02,20.21-6.66,21.12-47.47,32.16-49.12,6.54,0-3.36-.17-4.33.4-7.85.34-4.38,2.05-6.89,3.36-5.92.57.4,1.02,1.54,1.31,3.47.11,3.24.51,8.59,1.82,10.98,5.41,10.13,37.11,7.97,38.08-24.47-.06-.68-.34-1.08-.63-1.19-.68-.28-1.59.74-1.93,1.76-4.67,35.74-46.96,31.25-34.26-1.37,4.27-2.9,2.39,9.79,4.1,13.15,2.79,5.29,8.02,4.61,14.57,1.71,10.64-5.69,11.21-12.98,10.7-13.89h0c-.8-.57-2.67,1.71-4.95,2.68-2.73.68-5.92,1.02-8.59-2.16-.8-2.68-.57-6.09,0-9.16.57-3.93,4.84-8.03,8.59-8.03,5.18-.23,5.92,3.93,8.94,5.98,1.76.23,3.13-1.94,2.79-3.59-2.28-14.06-3.81-24.82-6.15-38.87-.57-3.3,1.25-4.95,3.24-5.58.57-.11,1.08-.4,1.54-.46h0Zm27.83,3.53h-.11c-.74.17-.97,1.2-.51,2.22.46,1.02,1.42,1.71,2.22,1.54.74-.23.97-1.2.51-2.22-.46-.97-1.37-1.65-2.11-1.54h0Zm.57-4.27c1.14-.06,2.33.11,3.64.68,1.54,1.76,2.5,5.58-.51,7.34-.57.57-.63,1.14,0,1.71.63.51,1.19.91,1.82,1.42,0,0-12.01,13.77-14.57,14.74h0l-.06.06c-.8.34-8.2.34-8.77-.06h-.06v-.06h-.06l-.06-.06h0v-.06c0-.06.06-.06.06-.06.57-1.48,12.35-9.56,16.9-14.4,1.08-.91-.51-2.5-2.11-3.24-1.65-2.05-1.2-5.24.91-7.23.8-.46,1.76-.74,2.85-.8h0Zm-82.19,74.56c-4.5,7.17-4.89,17.87-2.39,21.12,1.31,1.48,3.47,2.16,5.07,1.71,2.85-1.25,4.1-7,3.41-9.11-.91-1.48-1.65-1.71-2.62-.46-1.99,4.04-2.85,1.25-3.02-.97-.28-4.33.11-8.25.57-11.38.51-3.19,0-2.22-1.02-.91h0Zm192.6-11.5c-4.33-9.39-10.36-18.67-12.29-22.2-1.94-3.59-16.39-24.59-18.55-27.04-4.73-5.58,7.68,2.33-1.54-8.71-3.53-3.02-3.76-3.24-6.66-5.69-1.48-1.02-5.07-2.9-5.69.23-.34,2.79-.11,4.33.34,6.6.34,1.54,2.62,4.16,3.7,5.63,14.68,19.75,27.72,39.73,40.3,64.83,1.99-.97,1.59-12.12.4-13.66h0Zm-19.12,31.36c-.85.97,2.11,5.07,5.98,5.07,6.49-.74,12.18-4.38,17.42-13.95,1.42-2.22,3.93-7,3.98-10.64.46-21.68-1.08-38.53-4.38-54.18-.17-1.54-.06-3.36.23-3.81.4-.51,1.82,0,2.56-1.25,1.08-1.08-2.9-10.47-5.24-14.06-.8-1.59-1.08-2.67-2.45.23-1.42,2.33-2.39,6.37-2.28,10.19,3.07,21.34,4.04,40.01,6.09,61.36.11,2.05-.17,5.01-1.54,6.26-5.07,5.29-12.41,11.78-20.38,14.8h0Zm87.31-.12c-4.67,2.68-4.67,5.75-.91,5.86,6.43-.74,14.06-1.25,19.35-9.22,1.42-2.22,3.07-8.25,3.13-11.95.51-21.69-.28-42.86-3.53-58.51-.17-1.54-.86-5.07-.63-5.52.46-1.02,2.56.11,3.3-1.14,1.08-1.08-5.46-9.5-7.74-13.09-.85-1.65-1.14-2.67-2.45.17-1.42,2.33-1.93,6.49-1.37,10.19,3.41,23.16,5.98,45.59,6.49,66.14-.29,1.99-.34,3.02-1.25,5.46-2.05,2.56-4.27,5.8-6.37,7.4-2.11,1.54-6.6,3.07-8.03,4.21h0Zm3.47-20.77c-.06-5.41.06-10.07-.11-14.17-.23-3.98-2.05-19.18-2.68-22.43-.62-3.3-1.19-8.19-2.16-12.07-.23-1.54-1.02-6.37-.8-6.89.4-1.08,1.82.06,2.56-1.19,1.03-1.14-3.7-13.49-6.15-17.02-.85-1.59-2.45-1.02-4.38,1.54-1.82,1.65-1.14,5.52-.46,9.22,4.67,24.19,8.14,49.52,7.34,72.57-.23,1.94,6.83-5.86,6.83-9.56h0Zm-34.26-29.99c0-2.96.34-6.89.46-9.39.11-.91.28-1.94,1.19-2.16.91-.23,2.45.91,2.5-.06-.17-1.88-.57-4.67-1.65-6.03-1.48-2.11-5.35-1.59-5.98,1.76,0,1.25.57,1.94.45,3.07-.17.62-.85,1.08-2.45.34.28-.28-1.02-2.05-1.02-2.05-1.25-.74-2.9.06-3.98.74-.57,1.08-1.03,2.9-.34,4.78,1.76,3.3,7.85,8.94,10.81,8.99h0Zm-53.84,36.03c.8-7.4-.28-22.43-.34-26.75-.28-10.24-1.99-30.11-2.79-33.41-.91-6.2,2.56.68,2.11-2.96-1.14-6.2-4.61-10.42-8.65-16.16-1.31-1.82-1.25-2.22-3.3.46-2.22,5.12-.28,8.59.28,12.58,2.9,12.86,4.67,24.7,5.46,36.43.74,11.73,1.02,26.3.28,38.7,2.22.06,5.75-3.58,6.94-8.88h0Zm98.01-11.84c-5.12-8.59-12.92-18.73-14.97-22.2-2.11-3.47-19.63-29.14-21.85-31.48-6.37-6.72,2.96-1.08-1.19-6.26-3.53-3.87-4.55-5.12-7.63-7.4-1.48-.97-2.39-2.85-2.9.34-.17,2.79-.4,6.03-.23,8.37,0,1.31,1.37,3.76,2.56,5.24,15.54,19.07,32.5,42.46,46.16,66.99,1.93-1.02,1.25-12.07.06-13.6h0Zm-183.78-60.39c-4.72,13.38,2.68,28,7.8,26.58,3.64,1.54,5.98-5.46,7.51-13.2,1.02-2.11,1.82-2.33,2.33-1.25-.11,10.25.74,12.46,3.36,15.6,5.86,4.5,10.7.57,11.1.23.34-.4,4.55-4.61,4.55-4.61,1.02-1.08,2.33-1.14,3.81-.17,1.37,1.25,1.19,3.47,4.15,4.95,2.5,1.02,7.85.23,9.11-1.94,1.65-2.85,2.11-3.81,2.85-4.95,1.19-1.59,3.24-.85,3.24-.34-.17.91-1.37,1.76-.57,3.36,1.42,1.08,1.76.4,2.56.17,2.96-1.42,5.24-7.91,5.24-7.91.11-2.39-1.25-2.22-2.11-1.71-1.14.68-1.2.91-2.34,1.65-1.48.17-4.27,1.14-5.69-1.02-1.42-2.56-1.42-6.2-2.5-8.82,0-.17-1.94-4.1-.17-4.38.91.17,2.79.68,3.07-.91.97-1.54-1.99-5.98-3.98-8.14-1.71-1.94-4.1-2.16-6.43-.23-1.59,1.54-1.37,3.19-1.71,4.78-.4,1.82-.34,4.04,1.54,6.43,1.59,3.19,4.55,7.34,3.59,13.09,0,0-1.71,2.79-4.72,2.39-1.25-.28-3.3-.8-4.38-8.82-.8-6.09.17-14.57-2.39-18.55-.91-2.39-1.59-4.72-3.87-.63-.63,1.59-3.24,4.1-1.37,9.11,1.59,3.19,2.22,8.42,1.48,14.23-1.02,1.59-1.31,2.16-2.68,3.81-1.99,2.16-4.15,1.59-5.8.8-1.54-1.02-2.73-1.54-3.47-4.84.17-5.29.45-13.89-.51-15.71-1.42-2.85-3.76-1.82-4.72-.97-4.84,4.38-7.17,11.78-8.65,17.64-1.31,4.33-2.73,3.07-3.7,1.37-2.45-2.28-2.62-19.98-5.52-17.07h0Zm30.34,60.79c-1.82.11-2.96,1.42-2.9,2.96.74,6.77,5.86,9.9,7.63,11.21.8.4,1.82,1.08,2.56.97h.06c.06-.06.11-.06.17-.11h.06v-.06h.06v-.06c.06,0,.11-.06.11-.11.34-.51.4-1.59.06-3.7,0-4.27,2.79-5.06,5.75-6.09,2.96-1.02,1.42-3.53-1.76-3.7-3.93-.4-8.42-.45-11.5-1.31h-.28Zm25.5-23.16c-.28.06-.57.17-.68.28-.06,0-.11.06-.17.11h0c0,.06-.06.11-.06.11-.06.06-.06.17-.11.23v.11c-.06.68.63,1.59,1.71,2.28,1.14.63,2.33.68,2.84.23.06-.06.11-.11.17-.17v-.06l.06-.06v-.06l.06-.06v-.11c.06-.68-.57-1.65-1.71-2.28-.74-.4-1.54-.63-2.11-.57h0Zm-40.01-9.96h.11c.45.06,1.02.63,2.45,2.05,3.98,6.77,6.54,15.59,6.94,23.39-.17,1.54.68,2.62,1.31,2.79l.11.06h.17l.06-.06h.06l.06-.06h.06c.34-4.5,11.33-10.81,21.4-11.72,1.54-.34.8-3.3,1.02-4.78-.57-5.58,3.13-10.7,8.42-11.1,7.12,1.08,9.51,4.9,9.62,10.7-.8,11.16-12.41,13.09-18.95,13.94-.4.17-.74.34-.85.57h-.06v.28h.06v.06h.06v.06l.06.06c.17.11.4.29.74.4l27.43.11,1.36.8c.06.11.06.17.06.23v.06h-.06v.06h-.06c-.17.17-.63.28-1.42,1.54-1.08,1.82-2.68,5.92-2.73,8.65-8.19,2.62-16.62,3.81-25.21,4.84-3.02,1.48-4.5,3.53-3.87,5.75.97,2.45,7.23,4.9,7.63,5.12,1.25.8,2.73,2.68-.34,6.43-13.37-.63-23.73-6.32-27.32-14.34-1.08-.85-2.28,0-3.02,1.08-5.18,6.77-10.36,12.81-19.24,16.05-5.29,1.31-10.76-.85-13.32-4.33-1.65-1.88-1.71-3.93-2.22-4.55l-.06-.06c-2.9,1.25-27.6,11.72-24.47,6.83,6.03-6.37,16.45-11.16,25.61-17.47.68-2.16,1.88-9.33,5.52-11.67h0v.06h.06c.06.68-.63,4.33-.57,5.92.06.91,0,1.48,0,1.71v.06h.06v.06h.06v-.06h.06v-.06l.06-.06c.8-.51,11.78-9.16,12.64-11.84,1.02-1.48.4-5.18.34-5.52h0c-2.11-5.41-5.06-5.86-6.15-8.54-.97-3.59-.51-7.63,1.54-8.76,1.76-1.65,3.93-1.42,5.86.34,2.28,2.05,4.27,5.98,4.84,8.88-.4,1.2-2.79-.63-3.76-.17h-.06c1.59,1.65,2.33,3.53,2.9,5.81,1.42,6.15.97,8.54-.51,12.52-4.89,10.42-11.27,13.49-16.79,17.42h0c-.11.4-.11,2.68,1.82,3.98h.06c.74.74,3.64,1.14,6.94.06,6.6-3.59,13.38-10.19,16.73-17.47,1.02-5.58-.34-11.44-1.77-16.62-2.16-4.89-4.67-11.95-4.72-12.29-.11-3.07.11-4.21,1.48-5.75.85-.57,1.2-1.14,1.54-1.37h.06q.06-.06.11-.06h.06Zm-73.53-27.55c3.19,1.54,9.11.91,8.88-4.21,0-.46-.11-1.99-.17-2.39-.63-1.48-2.39-1.14-2.79.46-.17.51.17,1.31-.23,1.59-.28.23-1.31.06-1.25-1.31,0-.46-.34-.97-.51-1.19-.23-.17-.34-.23-.74-.23-.4.06-.4.17-.63.51-.11.4-.28.74-.28,1.2-.06.51-.23.68-.63.74-.34,0-.28.06-.63-.17-.17-.23-.46-.28-.46-.68,0-.34-.06-.97-.17-1.25-.17-.23-.46-.34-.8-.4-1.71,0-1.82,1.99-1.76,2.73-.11.11-.17,3.64,2.16,4.61h0Zm92.49,39.16c3.19,1.48,10.7.68,8.88-4.21,0-.46-.11-1.99-.17-2.39-.63-1.48-2.39-1.14-2.79.46-.11.45.23,1.31-.23,1.59-.28.23-1.31.06-1.25-1.31,0-.46-.34-.91-.51-1.25-.23-.11-.34-.17-.74-.17-.4.06-.4.17-.63.51-.11.4-.23.74-.23,1.2-.11.46-.28.68-.63.74-.4,0-.34.06-.68-.17-.17-.23-.46-.28-.46-.68,0-.34-.06-.97-.17-1.25-.17-.23-.46-.34-.8-.4-1.71,0-1.82,1.93-1.71,2.67-.11.17-.23,3.7,2.11,4.67h0Zm53.96-16.16c3.13,1.48,9.11.85,8.82-4.27,0-.46-.11-1.93-.11-2.33-.68-1.54-2.45-1.14-2.79.4-.17.51.17,1.31-.29,1.59-.23.23-1.25.11-1.19-1.31,0-.46-.34-.91-.57-1.2-.17-.17-.29-.17-.68-.17s-.4.11-.68.46c-.06.4-.23.8-.23,1.19-.06.51-.23.68-.62.74-.4,0-.29.06-.63-.17-.23-.17-.46-.29-.46-.63,0-.4-.06-1.02-.17-1.31-.23-.17-.51-.28-.8-.4-1.71,0-1.88,1.99-1.76,2.73-.11.17-.17,3.64,2.16,4.67h0Zm27.94,40.64c-5.52,6.2-3.07,16.5-1.82,18.72,1.76,3.59,3.25,5.92,6.77,7.69,3.25,2.39,5.69.91,7.12-.74,3.24-3.36,3.24-11.9,4.78-13.6,1.08-3.13,3.76-2.56,5.07-1.19,1.25,1.82,2.73,2.96,4.55,3.93,3.07,2.67,6.66,3.19,10.19.74,2.45-1.37,4.04-3.13,5.41-6.6,1.59-4.21.74-27.15.4-38.7-.11-.91-3.13-15.94-3.13-16.05,0-.17-.4-7.68-.74-9.45-.06-.74-.23-.97.57-.85.8.68.85.74,1.37.97.85.17,1.54-1.25,1.08-2.51-2.5-4.67-5.06-9.28-7.51-13.89-.62-.63-1.42-1.25-2.39.17-.91.8-1.88,2.22-1.88,4.1.29,3.3.85,6.66,1.08,9.96.97,5.58,1.99,11.27,3.02,16.85.91,12.07,1.14,23.11,2.11,35.12-.11,5.12-1.71,11.9-3.19,12.52,0,0-2.28,1.31-3.81-.17-1.08-.4-5.52-7.34-5.52-7.34-2.22-2.05-3.76-1.48-5.35,0-4.44,4.27-6.43,12.29-9.45,17.82-.74,1.25-2.96,2.28-5.41-.11-6.15-8.42-2.56-20.43-3.3-17.36h0Zm-26.52-70.18c-1.71-.46-4.16.57-3.36,2.9-.4,1.08,3.41,4.84,4.04,6.89,1.14,3.13-.8,6.15.34,6.6,1.08.46,2.56-3.24,3.13-6.72.68-2.79-1.31-8.54-4.15-9.68h0Zm35.63,73.59c.57-6.83-.4-11.04-.57-15.14-.23-3.98-4.61-36.77-5.52-39.84-1.02-5.75,4.33-.74,3.7-4.1-1.82-4.27-6.43-10.47-7.85-14.11-.91-1.59-.51-3.02-2.5-.4-1.76,5.86-2.39,10.7-1.71,14.34,4.61,24.19,9.39,46.27,8.65,69.27,2.16,0,4.73-5.01,5.81-10.02h0Zm48.27-65.4c-1.54-.46-3.76.63-3.08,3.13-.34,1.19,3.19,5.24,3.76,7.51.51,1.54-.8,6.6.28,7.11.97.51,2.33-3.53,2.85-7.29.28-2.05-1.2-9.22-3.81-10.47h0Zm-191.52,52.42c-1.54-.34-3.59.06-2.9,2.33-.11,1.19,3.36,2.67,3.53,5.46.51,1.14-.74,4.89.28,5.24.91.4,2.22-2.56,2.73-5.29.28-1.54-1.14-6.83-3.64-7.74h0Zm-65.85-62.38c-1.54-.28-3.64.51-2.9,2.45-.34.91,2.73,3.98,3.24,5.69.46,1.19-.45,5.06.51,5.41.91.4,2.22-2.68,2.73-5.52.23-1.59,0-6.89-3.59-8.02h0Zm71.83,25.21c-2.85,1.54-3.87,6.03-2.16,8.65,1.65,2.28,4.21,1.42,4.55,1.42,2.73.4,4.33-5.12,4.33-5.12,0,0,.11-1.54-3.13,1.42-1.37.23-1.54-.29-1.88-1.02-.28-1.42-.23-2.9.4-4.33.51-1.37-.57-1.94-2.11-1.02h0Zm20.89-27.26c-1.37.97-4.21,3.81-4.27,7.17-.06,1.88-.46,1.88.8,3.07.91,1.31,1.82,1.2,3.59.23,1.02-.74,1.37-1.25,1.71-2.56.46-2.11-2.22,1.02-2.56-1.37-.63-2.16,1.14-3.07,2.73-5.24.06-1.42,0-2.5-1.99-1.31h0Zm16.9,3.02c-.63,1.31-1.37,8.31-1.25,8.31-.46,2.05,2.22,2.96,3.41.28,1.82-4.9,1.82-6.94,1.94-9.05-.57-3.19-2.73-3.07-4.1.46h0Zm106.32,54.07c-1.48,1.31-.74,5.86,0,5.35,1.02.4,15.71-9.62,15.42-10.76.68.06,1.02-5.86-.46-5.29,0,0-14.63,10.36-14.97,10.7h0Zm13.32-.06c-1.59-.46-3.7.91-2.96,3.41-.34,1.2,1.82,5.35,2.39,7.57.51,1.59-.68,6.09.4,6.54,1.02.51,3.58-2.67,3.47-6.66.28-2.05-.74-9.62-3.3-10.87h0Zm-86.97,32.44c-.63.46-.57.91-.34,1.71.45,1.08,1.31.8,2.28.23,1.25-.17,1.88.68,1.76,2.22-.57,1.94.29,2.62.29,2.73s1.25,1.19,2.67.34c3.07-1.14,5.01-2.28,9.28-3.24,1.14,0,1.08-3.02-.74-3.13-2.28.11-4.44.23-6.77,2.05-1.42.34-1.65-.51-1.93-1.31-.4-1.93.74-3.3.51-4.72.11.11-1.31-1.2-2.79-.51-.06,0-3.19,2.16-4.21,3.64h0Zm102.33,4.1c.63.74,1.02,1.48-.06,2.85-1.03.91-1.71,1.42-2.79,2.33-.46.85-.74,2.1.74,2.5,2.73.8,8.99-3.3,8.99-3.41,1.08-.74.74-2.22.62-2.22-.62-.68-1.93-.28-2.84-.4-.46,0-1.82-.23-1.14-1.48.51-.74.74-1.19,1.14-2.16.4-.97.06-1.59-1.48-2.11-1.59-.28-2.22-.11-3.92,0-.97.17-1.31.63-1.48,1.76.11,1.71,1.14,1.59,2.22,2.33h0Z"></path></g></g></svg>